<?xml version="1.0" encoding="UTF-8"?><svg id="Layer_1" xmlns="http://www.w3.org/2000/svg" viewBox="0 0 1080 1080"><defs><style>.cls-1{letter-spacing:.4em;}.cls-2{letter-spacing:.34em;}.cls-3{letter-spacing:.34em;}.cls-4,.cls-5,.cls-6{fill:#fff;}.cls-7{fill:#231f20;}.cls-5{font-family:GillSans-Light, 'Gill Sans';font-size:33.5px;font-weight:300;}.cls-6{font-family:Hatton-Medium, Hatton;font-size:68.38px;font-weight:500;}.cls-8{letter-spacing:.3em;}.cls-9{letter-spacing:.35em;}.cls-10{letter-spacing:.35em;}.cls-11{letter-spacing:.38em;}.cls-12{letter-spacing:.35em;}.cls-13{letter-spacing:.35em;}.cls-14{letter-spacing:.36em;}</style></defs><rect class="cls-7" x="-13.45" y="-20.74" width="1106.97" height="1117.77"/><g><text class="cls-6" transform="translate(260.73 547.44) scale(.96 1)"><tspan class="cls-13" x="0" y="0">M</tspan><tspan class="cls-3" x="92.18" y="0">O</tspan><tspan class="cls-2" x="187.03" y="0">N</tspan><tspan class="cls-10" x="263.08" y="0">A</tspan><tspan class="cls-9" x="335.56" y="0">B</tspan><tspan class="cls-14" x="409.15" y="0">E</tspan><tspan class="cls-12" x="477.46" y="0">L</tspan><tspan class="cls-11" x="544" y="0">L</tspan></text><text class="cls-5" transform="translate(388.1 596.6)"><tspan class="cls-1" x="0" y="0">FODRÁSZ</tspan><tspan class="cls-8" x="239.38" y="0">A</tspan><tspan class="cls-1" x="271.77" y="0">T</tspan></text><path class="cls-4" d="M161.08,461.71c253.2-10,506.77-10.08,759.97,0-253.2,10.08-506.77,10-759.97,0h0Z"/><g><g><path class="cls-4" d="M461.72,395.28c1.02-1.3,1.72-3.67,.73-5.11-1.97-2.86-8.55,.88-12.19-2.52-2.22-2.07-1.95-5.49-1.91-5.91,.55-5.83,8.12-9.87,14.2-10.4,4.61-.41,8.31,1.2,10.3,2.28,0,0,8.52,5.62,9.53,14.75,1.01,9.13-1.02,32.23-24.72,37.29-23.71,5.06-29.83-11.78-29.83-11.78,0,0-2.11-4.78,6.58-4.64,.1,0,1.75,.02,2.42-1.12,.7-1.17-.15-2.67-.84-3.38-1.71-1.73-4.79-.9-5.01-.83-3.88,1.11-7.35,6.21-6.35,9.55,.11,.38,.09,.63-.05,.77-.73,.75-7.38-5.37-10.58-11.62-4.93-9.63-4.23-24.31,3.19-29.03,3.86-2.45,9.83-2.39,11.45-.05,1.52,2.21-1.13,6,.63,7.44,.97,.79,2.63,.36,3.53-.12,2.24-1.2,2.35-4.18,2.38-4.97,.09-2.51-1.11-4.72-2.34-6.01-3.66-3.84-11.45-3.57-16.46-.66-7.98,4.65-8.51,15.77-8.69,19.75-.67,14.14,7.77,24.56,10.82,27.99,0,0-14.94-8.29-16.36-33.18-.6-10.53,.37-19.67,2.92-28.15,4.73-15.72,12.88-25.5,19.26-32.88,8.71-10.08,18.54-17.69,21.84-15.55,1.38,.9,1.18,3.21,3.18,3.95,2.08,.77,4.98-.74,6.24-2.75,1.74-2.78,.82-7.26-2.74-10.53,0,0,10.64-9.03,19.82-5.7,4.66,1.69,9.01,6.72,9.05,11.95,0,.63,.04,5.05-2.94,6.62-1.76,.93-4.38,.75-5.54-.61-1.43-1.68-.17-4.57-.87-4.8-.48-.16-1.51,1.07-1.84,2.43-.43,1.78,.4,3.62,1.37,4.64,2.31,2.46,7.28,2.25,10.41,.27,4.83-3.06,5.68-10.63,3.47-15.88-1.43-3.38-3.94-5.37-5.35-6.31,6.1-.46,16.73-.34,28.07,4.98,6.03,2.83,19.53,9.17,23.27,22.91,2.07,7.63,1.06,18.09-5.19,24.06-.99,.94-4.26,3.87-9.37,4.48-1.55,.19-6.52,.54-10.59-2.48-4.88-3.64-6.78-10.92-4.54-18.08-1.44,1.23-3.9,3.73-4.59,7.43-1.32,7,4.54,13.64,10.03,16.29,7.8,3.77,17.19,.61,22.49-4.28,9.77-8.99,7.74-25.7,2.51-35.77-5.48-10.54-15.13-15.09-21.33-17.99-12.44-5.83-23.93-5.84-29.81-5.43,11.18-3.66,29.51-11.57,44.85-28.84,5.65-6.36,13.04-16.34,17.71-31.27,1.29-4.11,4.38-15.92-.42-29.51-.9-2.56-6.65-18.05-22.89-25.85-10.37-4.98-19.64-4.24-21.55-4.06-4.56,.44-11.55,1.1-17.14,6.45-7.07,6.77-8.74,18.01-5.65,21.9,.2,.25,2.2,2.77,3.34,2.3,.39-.16,.66-.66,.68-1.11,.04-.9-.95-1.6-1.23-1.83-2.1-1.71-2.19-7.53-.5-11.51,.46-1.08,1.89-4.02,6.7-6.86,12.02-7.1,26.89-2.81,29.05-2.16,3.57,1.08,13.39,4.21,20.72,13.94,6.27,8.33,7.24,16.89,7.58,20.29,1.64,16.37-6.68,28.89-11.08,35.5-11.57,17.41-27.82,25.3-35.79,28.5,8.44-7.17,12.99-14.65,15.36-19.35,2.34-4.64,5.12-10.33,5.2-18.16,.04-3.92,.12-11.6-5.33-17.02-2.81-2.79-5.95-3.87-7.2-4.28-1.59-.52-7.17-2.36-13.11,.38-1.21,.56-5.98,2.86-8.01,8.19-.5,1.32-2.25,5.91,.21,9.6,1.31,1.97,3.77,3.61,6.3,3.47,1.28-.07,2.78-.61,2.8-1.21,.03-.82-2.72-.73-4.5-2.71-1.97-2.2-1.49-5.55-1.38-6.33,.47-3.24,2.6-5.92,4.75-7.26,5.92-3.67,16.45,.02,20.38,6.75,3.44,5.91,1.01,12.83-1.16,18.75-7.78,21.16-27.38,32.35-35.47,36.84-7.25,4.02-13.72,6.43-18.19,7.86,1.86-6.67,.29-12.91-3.67-15.44-2.18-1.4-6.11-2.32-8.75-.62-.31,.2-1.98,1.27-2.16,3.05-.14,1.39,.67,2.92,1.22,2.89,.35-.02,.4-.68,.79-1.2,1.18-1.59,5.25-1.55,7.19-.03,2.97,2.32,2.25,9.1-.36,13.74-2.96,5.27-7.21,5.76-14.68,10.87,0,0-4.54,3.11-13.38,12.33-24.03,25.07-26.36,52.09-26.36,52.09-2.77,32.11,18.95,55.51,23.02,59.75-13.35-.82-22.07-4.91-27.72-8.75-11.38-7.74-21.95-22.38-21.95-22.38,0,0,0,0,0-.01-1.65-2.65-9.17-14.92-6.01-27.57,.99-3.94,2.41-5.54,2.77-5.92,2.61-2.8,7.82-5.12,11.9-2.77,2.59,1.49,5.25,5.17,3.92,8.59-1.31,3.37-5.53,4.04-5.75,4.07,0,0,.43,1.29,1.67,1.83,2.14,.94,4.96-.73,6.32-2.38,2.38-2.88,1.9-7.53,.1-10.56-2.76-4.62-8.97-6.04-13.75-4.88-6.8,1.64-9.46,8.17-9.73,8.85,0,0-10.85-30.5,4.5-47.58,1.71-1.9,6.7-6.8,14.36-7.79,2.43-.31,9.05-1.17,13.71,3.4,.41,.4,5,5.06,3.69,10.98-1.15,5.22-6.41,9.27-12.84,9.42,.34,.67,.89,1.48,1.8,2.06,3.39,2.14,9.44-.5,12.5-4.08,4.51-5.27,3.9-14.15-.39-19.49-3.18-3.96-7.67-5.1-9.72-5.58-10.78-2.56-24.2,2.57-31.33,12.08-7.92,10.57-8.61,27.29-8.61,27.29-4.29-5.3-25.2-30.09-54.26-28.97-4.11,.16-20.39,1.27-29.09,12.4-1.43,1.83-4.49,5.85-4.96,11.78-.18,2.23-.26,8.06,3.72,13.22,.78,1.01,3.11,3.95,7.28,5.55,.91,.35,7.55,2.88,11.52-.54,.93-.81,1.47-1.73,1.77-2.36-1.3,.43-4.27,1.22-7.84,.35-1.09-.26-5.84-1.56-8.54-6.16-2.47-4.2-1.67-8.5-1.35-10.18,1.7-9.13,10.27-14.2,11.77-15.08,17.49-10.35,42.85,5.05,44.92,6.35,20.42,12.76,26.6,34.24,28.21,40.77-3.13-4.71-12.46-17.33-28.71-21.16-4.74-1.12-14.23-3.35-22.58,1.94-1.41,.9-9.37,5.94-9.51,14.64,0,.61-.02,8.01,5.51,11.85,7.39,5.14,19.56,.38,20.27-3.87,.12-.74-.11-1.44-.4-2-1,.76-2.76,1.9-5.21,2.43-1.15,.25-5.17,1.13-8.37-1.04-3.91-2.64-4.79-8.59-3.19-12.74,2.11-5.46,8.34-7.3,9.63-7.68,13.95-4.11,31.57,9.66,40.92,20.8,3.23,3.85,1.55,2.72,17.92,26.25,3.05,4.39,5.9,8.43,10.46,13.13,5.65,5.82,11.16,9.79,15.13,12.32-4.29-.73-9.99-1.34-16.69-1.1-6.82,.25-18.01,.79-29.12,7.36-7.87,4.66-10.23,9.1-10.9,10.47-.67,1.38-2.4,5.04-2.03,9.96,.22,2.91,1.09,5.19,1.76,6.61l7.99-.32s-6.95-9.06-2.03-18.03c4.93-8.97,35.73-12.73,35.73-12.73-1.11,.3-11.53,3.29-14.24,12.3-.22,.75-2.48,8.64,1.88,12.63,1.81,1.65,4.01,1.94,5.34,2.11,4.45,.58,10.33-1.08,11.25-4.54,.53-1.98-.51-4.74-2.14-5.18-.83-.23-1.97,.11-2.44,.87-.72,1.17,.75,2.42,.35,3.67-.68,2.12-6.59,3.6-9.62,1.18-2.79-2.24-2.72-7.45-1.11-10.84,4.2-8.88,20.75-9.23,30.4-9.43,11.77-.25,13.78,1.64,26.25,2.54,15.31,1.1,29.36,2.12,42.82-4.82,4.1-2.11,22.29-11.48,23.61-29.42,.84-11.38-5.28-23.9-15.73-29.33-1.81-.94-8.82-4.46-17.24-2.33-2.01,.51-11.67,2.94-14.26,11.5-1.49,4.94-.6,11.81,4.19,15.45,4.23,3.22,11.38,3.81,14,.48Z"/><path class="cls-4" d="M316.77,418.39c-9.43,1.59-11.98,6.05-12.82,7.43-.5,.82-3.31,5.7-1.24,10.55,.14,.33,1.87,4.23,5.61,5.48,6.34,2.12,12.27-5.47,25-13.15,6.31-3.81,12.32-6.44,17.53-8.31,0,0-13.92-5.39-34.08-2Zm10.52,10.39c-8.25,5.75-12.39,11.02-16.87,9.71-2.6-.76-3.9-3.41-4-3.63-1.55-3.29,.26-6.72,.58-7.29,.13-.23,.32-.59,.63-1.02,2.21-3.08,6.41-4.08,8-4.43,4.48-1.01,13.63-1.65,25.53-1.02-6.2,2.68-10.8,5.56-13.87,7.69Z"/><path class="cls-4" d="M350.04,400.79c-5.71-3.96-15.91-7.92-19.85-3.94-2.08,2.1-2.21,6.2-.69,8.92,1.51,2.71,4.39,3.57,7.57,4.47,4.99,1.41,7.58,.58,17.04,1,2.29,.1,4.16,.24,5.35,.34-1.41-2.68-4.25-7.2-9.43-10.79Zm-.51,7.73c-6.24-.28-7.95,.27-11.25-.66-2.1-.59-4-1.16-5-2.95-1-1.8-.91-4.5,.46-5.89,2.6-2.63,9.33-.01,13.1,2.6,3.41,2.37,5.29,5.35,6.22,7.12-.78-.06-2.02-.16-3.53-.22Z"/><path class="cls-4" d="M274.59,396.98c-2.27,.65-6.5,1.86-8.21,5.63-1.26,2.78-.98,6.57,1.06,8.83,1.45,1.61,3.73,2.36,11.65,1.82,10.53-.72,15.7-2.62,25.26-3.64,4.3-.46,7.77-.51,9.75-.5-3.69-2.31-25.93-16.02-39.5-12.13Zm22.88,10.58c-7.18,.71-10.93,2.39-18.24,2.42-4.14,.01-6.21-.5-7.32-2.03-.79-1.1-1.06-2.69-.57-3.97,1.17-3,6.31-3.43,8.96-3.66,3.89-.33,12.43-.21,24.2,6.9-1.43,0-3.93,.03-7.04,.34Z"/><path class="cls-4" d="M293.81,420.22c-1.42-3.31-47.26,12.78-50.41,25.71-.27,1.12-1.08,4.41,.67,6.73,2.01,2.67,6.29,2.53,7.35,2.49,9.74-.32,13.39-11.6,29.62-25.28,8.91-7.51,13.19-8.65,12.77-9.65Zm-21.54,14.05c-10.58,10.05-13.83,17.06-20.25,17.28-.73,.02-3.65,.12-5.03-1.7-1.22-1.62-.63-3.92-.46-4.6,1.25-4.85,7.26-7.39,14.78-10.81,15.86-7.19,20.51-10.14,20.99-9.33,.44,.73-3.48,2.93-10.05,9.16Z"/><path class="cls-4" d="M219.84,428.56c-10.39,.19-14.59,.39-19.37,2.99-2.31,1.26-6.45,3.58-7.44,8-.11,.5-.98,4.69,1.67,7.51,1.87,1.99,4.48,2.21,5.97,2.31,3.82,.26,6.74-1.15,11.05-3.49,6.17-3.35,9.26-5.02,13.77-8.07,3.37-2.28,7.77-5.42,12.77-9.45-4.51,.02-10.83,.07-18.41,.2Zm-.71,9.6c-3.03,2.05-5.11,3.18-9.26,5.43-2.9,1.57-4.86,2.52-7.43,2.35-1-.07-2.75-.21-4.01-1.55-1.78-1.9-1.2-4.71-1.12-5.05,.67-2.97,3.45-4.54,5-5.38,3.22-1.75,6.04-1.88,13.03-2.01,5.1-.09,9.35-.12,12.39-.14-3.36,2.71-6.32,4.82-8.59,6.36Z"/><path class="cls-4" d="M333.14,273.04c-2.2-.33-4.55,.66-5.81,2.13-3.15,3.68-.03,11,1.28,14.1,1.79,4.21,3.15,5.21,5.56,9.16,6.53,10.71,6.53,19.78,8.31,19.67,1.33-.08,2.21-5.21,2.53-9.44,1.11-14.87-3.59-34.39-11.87-35.62Zm8.32,27.47c-.03,1.06-.13,3.16-.83,3.31-1.2,.26-2.72-5.53-6.08-9.84-.36-.46-1.44-1.9-2.66-4.03-.29-.51-.58-1.08-.89-1.81-.84-1.98-2.83-6.64-.82-8.99,.81-.94,2.3-1.57,3.71-1.36,5.76,.85,7.78,15.1,7.57,22.72Z"/><path class="cls-4" d="M311.43,283.44c-8.56-9.75-14.52-14.65-22.2-16.69-4.79-1.27-7.18-.62-8.65,.47-2.94,2.18-3.85,7.31-2.51,11.13,1.69,4.85,10.05,8.09,26.69,14.38,5.89,2.23,10.13,3.65,15.51,7.36,4.72,3.25,6.96,5.94,7.4,5.56,.9-.76-7.58-12.35-16.24-22.21Zm4.36,11.41c-.28,.26-1.85-1.45-5.07-3.45-3.68-2.28-6.53-3.09-10.5-4.38-11.21-3.64-16.84-5.52-18.12-8.67-1.01-2.49-.57-5.91,1.31-7.44,.94-.77,2.5-1.28,5.71-.59,5.15,1.11,9.24,4.16,15.22,10.34,6.04,6.25,12.02,13.65,11.45,14.19Z"/></g><g><path class="cls-4" d="M613.75,394.53c-1.05-1.28-1.8-3.63-.84-5.09,1.91-2.91,8.57,.69,12.13-2.79,2.17-2.12,1.83-5.53,1.78-5.95-.67-5.81-8.34-9.69-14.43-10.09-4.61-.3-8.28,1.39-10.24,2.51,0,0-8.39,5.81-9.2,14.95-.81,9.15,1.73,32.2,25.54,36.74,23.81,4.54,29.57-12.44,29.57-12.44,0,0,2-4.82-6.68-4.5-.1,0-1.74,.06-2.45-1.06-.72-1.15,.09-2.67,.77-3.4,1.68-1.77,4.77-1,4.99-.94,3.91,1.03,7.48,6.05,6.56,9.4-.11,.38-.07,.64,.06,.77,.75,.74,7.26-5.53,10.32-11.86,4.71-9.74,3.69-24.4-3.83-28.95-3.92-2.37-9.88-2.18-11.44,.2-1.47,2.24,1.26,5.97-.47,7.45-.95,.81-2.62,.42-3.53-.04-2.26-1.15-2.44-4.12-2.48-4.91-.15-2.51,1.01-4.75,2.21-6.06,3.58-3.92,11.37-3.82,16.44-1.02,8.08,4.47,8.85,15.58,9.13,19.55,.98,14.12-7.22,24.72-10.2,28.22,0,0,14.76-8.62,15.63-33.53,.37-10.54-.8-19.65-3.54-28.07-5.07-15.62-13.44-25.21-19.98-32.45-8.93-9.89-18.92-17.28-22.17-15.06-1.36,.93-1.11,3.23-3.09,4.02-2.06,.82-5-.63-6.3-2.61-1.8-2.74-.98-7.25,2.5-10.59,0,0-10.84-8.79-19.94-5.26-4.62,1.79-8.86,6.92-8.79,12.15,0,.63,.07,5.05,3.08,6.56,1.78,.89,4.39,.66,5.52-.73,1.39-1.71,.07-4.57,.77-4.81,.48-.17,1.53,1.04,1.89,2.39,.47,1.77-.32,3.63-1.26,4.67-2.26,2.51-7.23,2.41-10.4,.5-4.9-2.96-5.91-10.5-3.81-15.8,1.35-3.41,3.82-5.45,5.21-6.43-6.11-.33-16.74,.02-27.95,5.59-5.97,2.96-19.33,9.6-22.76,23.42-1.91,7.68-.66,18.11,5.71,23.94,1.01,.92,4.35,3.77,9.47,4.27,1.55,.15,6.53,.4,10.53-2.71,4.8-3.74,6.54-11.07,4.14-18.18,1.46,1.2,3.98,3.64,4.76,7.33,1.47,6.97-4.24,13.73-9.67,16.51-7.72,3.94-17.17,.99-22.58-3.78-9.96-8.78-8.31-25.53-3.29-35.71,5.24-10.66,14.79-15.42,20.93-18.46,12.31-6.1,23.8-6.36,29.69-6.08-11.26-3.41-29.76-10.91-45.48-27.84-5.79-6.24-13.39-16.04-18.39-30.87-1.38-4.08-4.73-15.82-.23-29.51,.85-2.58,6.25-18.19,22.31-26.35,10.26-5.21,19.54-4.68,21.45-4.54,4.57,.33,11.57,.85,17.28,6.07,7.21,6.61,9.14,17.81,6.13,21.77-.19,.25-2.14,2.82-3.29,2.38-.39-.15-.67-.65-.7-1.09-.06-.9,.91-1.62,1.19-1.85,2.07-1.75,2.02-7.58,.25-11.52-.48-1.07-1.98-3.98-6.85-6.71-12.17-6.83-26.95-2.22-29.09-1.52-3.54,1.16-13.3,4.5-20.41,14.39-6.09,8.47-6.87,17.05-7.13,20.45-1.28,16.4,7.32,28.73,11.86,35.25,11.96,17.15,28.37,24.69,36.41,27.7-8.59-6.98-13.31-14.36-15.78-19.01-2.44-4.59-5.35-10.21-5.6-18.04-.13-3.92-.37-11.59,4.95-17.14,2.74-2.86,5.87-4,7.1-4.44,1.58-.56,7.12-2.52,13.11,.09,1.22,.53,6.04,2.72,8.19,8.01,.53,1.31,2.38,5.86,0,9.6-1.27,1.99-3.69,3.69-6.22,3.61-1.28-.04-2.79-.55-2.83-1.15-.05-.82,2.71-.79,4.44-2.81,1.93-2.24,1.37-5.58,1.24-6.36-.54-3.23-2.73-5.86-4.91-7.15-6-3.54-16.45,.38-20.22,7.2-3.31,5.99-.73,12.85,1.58,18.72,8.25,20.98,28.08,31.74,36.27,36.05,7.34,3.86,13.86,6.12,18.36,7.45-2-6.63-.57-12.9,3.33-15.52,2.15-1.45,6.06-2.46,8.74-.82,.32,.19,2.01,1.23,2.23,3,.17,1.39-.61,2.94-1.15,2.91-.35-.02-.42-.67-.82-1.18-1.22-1.57-5.28-1.44-7.19,.13-2.92,2.39-2.05,9.15,.66,13.73,3.07,5.21,7.34,5.6,14.92,10.55,0,0,4.61,3.01,13.65,12.03,24.58,24.54,27.5,51.5,27.5,51.5,3.47,32.04-17.72,55.92-21.7,60.25,13.33-1.11,21.96-5.4,27.52-9.36,11.21-7.98,21.45-22.86,21.45-22.86,0,0,0,0,0-.01,1.6-2.69,8.84-15.12,5.4-27.69-1.07-3.92-2.54-5.48-2.9-5.86-2.67-2.74-7.93-4.95-11.96-2.5-2.56,1.55-5.13,5.28-3.73,8.67,1.38,3.34,5.62,3.91,5.84,3.94,0,0-.4,1.3-1.63,1.87-2.12,.98-4.98-.62-6.37-2.24-2.44-2.82-2.07-7.49-.33-10.56,2.66-4.68,8.83-6.23,13.64-5.19,6.83,1.49,9.64,7.96,9.92,8.63,0,0,10.17-30.73-5.55-47.47-1.75-1.86-6.85-6.65-14.53-7.47-2.44-.26-9.08-.97-13.63,3.71-.4,.41-4.88,5.17-3.45,11.06,1.26,5.19,6.61,9.13,13.05,9.14-.33,.67-.86,1.5-1.76,2.09-3.34,2.22-9.45-.3-12.59-3.8-4.62-5.17-4.21-14.06-.04-19.49,3.1-4.03,7.56-5.26,9.59-5.8,10.72-2.8,24.25,2.04,31.59,11.39,8.15,10.39,9.21,27.09,9.21,27.09,4.17-5.39,24.53-30.63,53.61-30.16,4.12,.07,20.41,.82,29.36,11.76,1.47,1.8,4.62,5.75,5.22,11.67,.23,2.23,.43,8.05-3.43,13.29-.75,1.02-3.02,4.02-7.16,5.71-.9,.37-7.49,3.05-11.53-.29-.95-.78-1.51-1.69-1.82-2.33,1.31,.4,4.3,1.12,7.84,.17,1.08-.29,5.8-1.69,8.4-6.34,2.38-4.25,1.48-8.53,1.13-10.21-1.9-9.09-10.58-13.97-12.1-14.82-17.71-9.96-42.73,6-44.77,7.33-20.13,13.21-25.84,34.81-27.3,41.38,3.03-4.78,12.08-17.6,28.24-21.78,4.72-1.22,14.16-3.66,22.62,1.45,1.43,.86,9.5,5.74,9.83,14.42,.02,.61,.19,8.01-5.25,11.97-7.27,5.3-19.55,.81-20.35-3.43-.14-.74,.08-1.44,.36-2,1.01,.74,2.8,1.84,5.26,2.32,1.15,.22,5.2,1.01,8.35-1.22,3.85-2.73,4.6-8.69,2.91-12.8-2.23-5.41-8.5-7.11-9.8-7.46-14.03-3.8-31.35,10.35-40.45,21.69-3.15,3.92-1.49,2.75-17.34,26.64-2.96,4.46-5.71,8.56-10.17,13.36-5.52,5.94-10.95,10.03-14.86,12.65,4.28-.82,9.96-1.56,16.66-1.46,6.82,.1,18.02,.39,29.28,6.71,7.98,4.48,10.43,8.87,11.13,10.23,2.29,4.46,2.27,8.75,2.25,9.91-.09,3.99-1.3,7.05-2.1,8.71-2.82-.05-5.65-.1-8.47-.14,1.2-1.33,4.62-5.45,4.52-11.2-.06-3.52-1.41-6.08-2.08-7.32-7.1-13.09-27.63-13.89-29-13.93-3.01-.08-5.44,.18-6.85,.38,1.11,.27,11.6,3.03,14.5,11.98,.24,.74,2.67,8.59-1.61,12.67-1.77,1.69-3.96,2.03-5.29,2.23-4.43,.68-10.35-.85-11.35-4.29-.58-1.97,.4-4.75,2.02-5.23,.83-.25,1.97,.06,2.46,.81,.74,1.16-.69,2.44-.27,3.67,.73,2.1,6.67,3.45,9.64,.96,2.74-2.3,2.55-7.51,.87-10.87-4.39-8.78-20.94-8.77-30.6-8.76-11.77,.01-13.74,1.94-26.18,3.11-15.29,1.44-29.31,2.76-42.92-3.88-4.15-2.02-22.54-10.99-24.26-28.9-1.09-11.36,4.75-24.01,15.08-29.67,1.78-.98,8.72-4.65,17.19-2.71,2.02,.46,11.73,2.69,14.51,11.18,1.6,4.9,.86,11.8-3.84,15.54-4.16,3.31-11.3,4.06-13.99,.79Z"/><path class="cls-4" d="M725.14,417.19c5.25,1.75,11.32,4.26,17.71,7.92,12.9,7.4,19,14.86,25.29,12.59,3.71-1.33,5.35-5.28,5.48-5.61,1.96-4.9-.96-9.71-1.48-10.52-.87-1.36-3.51-5.77-12.98-7.15-20.23-2.95-34.03,2.75-34.03,2.75Zm9.71,.49c11.88-.88,21.04-.44,25.55,.46,1.6,.32,5.82,1.22,8.1,4.26,.32,.42,.51,.77,.65,1,.33,.57,2.22,3.96,.74,7.28-.1,.22-1.33,2.89-3.92,3.72-4.45,1.41-8.7-3.76-17.08-9.33-3.11-2.07-7.78-4.84-14.03-7.39Z"/><path class="cls-4" d="M716.34,408.57c1.18-.12,3.05-.3,5.34-.45,9.45-.63,12.06,.15,17.02-1.38,3.17-.97,6.02-1.89,7.47-4.64,1.46-2.75,1.23-6.85-.89-8.9-4.03-3.9-14.13,.29-19.76,4.38-5.09,3.7-7.83,8.28-9.19,10.99Zm6.34-2.98c.89-1.79,2.7-4.81,6.06-7.26,3.71-2.7,10.38-5.46,13.04-2.89,1.4,1.36,1.55,4.06,.59,5.88-.96,1.81-2.84,2.42-4.93,3.06-3.27,1-5,.49-11.23,.91-1.51,.1-2.74,.22-3.53,.3Z"/><path class="cls-4" d="M761.65,405.1c1.97-.05,5.45-.08,9.76,.29,9.57,.81,14.79,2.6,25.33,3.09,7.93,.37,10.19-.44,11.61-2.07,1.99-2.3,2.19-6.1,.86-8.85-1.79-3.73-6.05-4.85-8.33-5.45-13.66-3.59-35.59,10.6-39.23,13Zm9.54-2.1c11.6-7.37,20.14-7.68,24.04-7.43,2.65,.17,7.8,.49,9.04,3.46,.53,1.27,.28,2.87-.48,3.98-1.07,1.56-3.13,2.12-7.27,2.2-7.3,.13-11.09-1.47-18.29-2.02-3.11-.24-5.62-.22-7.04-.18Z"/><path class="cls-4" d="M795.14,425.13c16.53,13.32,20.42,24.51,30.17,24.62,1.07,.01,5.34,.06,7.3-2.65,1.69-2.35,.82-5.63,.52-6.74-3.44-12.85-49.62-27.93-50.97-24.59-.4,1,3.91,2.05,12.97,9.36Zm-1.38-4.72c.47-.82,5.18,2.02,21.19,8.86,7.6,3.25,13.66,5.65,15.02,10.48,.19,.67,.83,2.96-.36,4.61-1.34,1.85-4.26,1.82-4.99,1.81-6.42-.07-9.82-7.01-20.62-16.83-6.7-6.09-10.67-8.2-10.25-8.94Z"/><path class="cls-4" d="M837.88,422.68c5.08,3.92,9.55,6.96,12.97,9.16,4.58,2.95,7.7,4.56,13.95,7.77,4.36,2.24,7.31,3.59,11.13,3.24,1.49-.13,4.08-.41,5.91-2.44,2.59-2.88,1.63-7.04,1.5-7.54-1.09-4.4-5.28-6.63-7.61-7.84-4.84-2.49-9.04-2.6-19.43-2.56-7.59,.03-13.9,.12-18.41,.2Zm10.61,3.21c3.04-.06,7.28-.12,12.39-.14,6.99-.03,9.82,.04,13.07,1.72,1.57,.81,4.39,2.31,5.12,5.27,.08,.34,.73,3.14-1.01,5.07-1.23,1.37-2.98,1.55-3.98,1.64-2.56,.23-4.55-.68-7.48-2.18-4.2-2.16-6.3-3.24-9.38-5.22-2.3-1.48-5.31-3.53-8.73-6.16Z"/><path class="cls-4" d="M728.52,305.36c.41,4.22,1.4,9.32,2.74,9.38,1.78,.07,1.58-8.99,7.87-19.84,2.32-4,3.66-5.03,5.35-9.28,1.25-3.13,4.2-10.51,.97-14.12-1.3-1.45-3.66-2.38-5.86-2.01-8.25,1.41-12.52,21.03-11.08,35.87Zm10.44-31.11c1.4-.24,2.91,.35,3.73,1.28,2.06,2.3,.18,7.01-.62,9.01-.29,.74-.57,1.32-.85,1.83-1.17,2.15-2.22,3.62-2.57,4.09-3.27,4.38-4.66,10.21-5.86,9.97-.7-.14-.85-2.24-.9-3.29-.37-7.62,1.33-21.9,7.07-22.88Z"/><path class="cls-4" d="M745.8,301.97c.45,.37,2.63-2.37,7.28-5.73,5.3-3.82,9.51-5.34,15.34-7.7,16.5-6.66,24.78-10.09,26.37-14.97,1.25-3.85,.23-8.96-2.76-11.07-1.5-1.06-3.9-1.66-8.66-.28-7.63,2.21-13.48,7.24-21.83,17.17-8.44,10.05-16.66,21.82-15.75,22.56Zm22.77-25.49c5.84-6.31,9.86-9.45,14.99-10.68,3.19-.76,4.76-.29,5.72,.46,1.91,1.49,2.42,4.9,1.47,7.41-1.2,3.18-6.79,5.19-17.92,9.07-3.94,1.37-6.77,2.25-10.4,4.61-3.18,2.07-4.71,3.82-5,3.56-.58-.52,5.23-8.05,11.13-14.43Z"/></g></g><path class="cls-4" d="M158.95,619.24c253.2-10,506.77-10.08,759.97,0-253.2,10.08-506.77,10-759.97,0h0Z"/><g><g><path class="cls-4" d="M460.06,684.72c1.02,1.3,1.72,3.67,.73,5.11-1.97,2.86-8.55-.88-12.19,2.52-2.22,2.07-1.95,5.49-1.91,5.91,.55,5.83,8.12,9.87,14.2,10.4,4.61,.41,8.31-1.2,10.3-2.28,0,0,8.52-5.62,9.53-14.75,1.01-9.13-1.02-32.23-24.72-37.29-23.71-5.06-29.83,11.78-29.83,11.78,0,0-2.11,4.78,6.58,4.64,.1,0,1.75-.02,2.42,1.12,.7,1.17-.15,2.67-.84,3.38-1.71,1.73-4.79,.9-5.01,.83-3.88-1.11-7.35-6.21-6.35-9.55,.11-.38,.09-.63-.05-.77-.73-.75-7.38,5.37-10.58,11.62-4.93,9.63-4.23,24.31,3.19,29.03,3.86,2.45,9.83,2.39,11.45,.05,1.52-2.21-1.13-6,.63-7.44,.97-.79,2.63-.36,3.53,.12,2.24,1.2,2.35,4.18,2.38,4.97,.09,2.51-1.11,4.72-2.34,6.01-3.66,3.84-11.45,3.57-16.46,.66-7.98-4.65-8.51-15.77-8.69-19.75-.67-14.14,7.77-24.56,10.82-27.99,0,0-14.94,8.29-16.36,33.18-.6,10.53,.37,19.67,2.92,28.15,4.73,15.72,12.88,25.5,19.26,32.88,8.71,10.08,18.54,17.69,21.84,15.55,1.38-.9,1.18-3.21,3.18-3.95,2.08-.77,4.98,.74,6.24,2.75,1.74,2.78,.82,7.26-2.74,10.53,0,0,10.64,9.03,19.82,5.7,4.66-1.69,9.01-6.72,9.05-11.95,0-.63,.04-5.05-2.94-6.62-1.76-.93-4.38-.75-5.54,.61-1.43,1.68-.17,4.57-.87,4.8-.48,.16-1.51-1.07-1.84-2.43-.43-1.78,.4-3.62,1.37-4.64,2.31-2.46,7.28-2.25,10.41-.27,4.83,3.06,5.68,10.63,3.47,15.88-1.43,3.38-3.94,5.37-5.35,6.31,6.1,.46,16.73,.34,28.07-4.98,6.03-2.83,19.53-9.17,23.27-22.91,2.07-7.63,1.06-18.09-5.19-24.06-.99-.94-4.26-3.87-9.37-4.48-1.55-.19-6.52-.54-10.59,2.48-4.88,3.64-6.78,10.92-4.54,18.08-1.44-1.23-3.9-3.73-4.59-7.43-1.32-7,4.54-13.64,10.03-16.29,7.8-3.77,17.19-.61,22.49,4.28,9.77,8.99,7.74,25.7,2.51,35.77-5.48,10.54-15.13,15.09-21.33,17.99-12.44,5.83-23.93,5.84-29.81,5.43,11.18,3.66,29.51,11.57,44.85,28.84,5.65,6.36,13.04,16.34,17.71,31.27,1.29,4.11,4.38,15.92-.42,29.51-.9,2.56-6.65,18.05-22.89,25.85-10.37,4.98-19.64,4.24-21.55,4.06-4.56-.44-11.55-1.1-17.14-6.45-7.07-6.77-8.74-18.01-5.65-21.9,.2-.25,2.2-2.77,3.34-2.3,.39,.16,.66,.66,.68,1.11,.04,.9-.95,1.6-1.23,1.83-2.1,1.71-2.19,7.53-.5,11.51,.46,1.08,1.89,4.02,6.7,6.86,12.02,7.1,26.89,2.81,29.05,2.16,3.57-1.08,13.39-4.21,20.72-13.94,6.27-8.33,7.24-16.89,7.58-20.29,1.64-16.37-6.68-28.89-11.08-35.5-11.57-17.41-27.82-25.3-35.79-28.5,8.44,7.17,12.99,14.65,15.36,19.35,2.34,4.64,5.12,10.33,5.2,18.16,.04,3.92,.12,11.6-5.33,17.02-2.81,2.79-5.95,3.87-7.2,4.28-1.59,.52-7.17,2.36-13.11-.38-1.21-.56-5.98-2.86-8.01-8.19-.5-1.32-2.25-5.91,.21-9.6,1.31-1.97,3.77-3.61,6.3-3.47,1.28,.07,2.78,.61,2.8,1.21,.03,.82-2.72,.73-4.5,2.71-1.97,2.2-1.49,5.55-1.38,6.33,.47,3.24,2.6,5.92,4.75,7.26,5.92,3.67,16.45-.02,20.38-6.75,3.44-5.91,1.01-12.83-1.16-18.75-7.78-21.16-27.38-32.35-35.47-36.84-7.25-4.02-13.72-6.43-18.19-7.86,1.86,6.67,.29,12.91-3.67,15.44-2.18,1.4-6.11,2.32-8.75,.62-.31-.2-1.98-1.27-2.16-3.05-.14-1.39,.67-2.92,1.22-2.89,.35,.02,.4,.68,.79,1.2,1.18,1.59,5.25,1.55,7.19,.03,2.97-2.32,2.25-9.1-.36-13.74-2.96-5.27-7.21-5.76-14.68-10.87,0,0-4.54-3.11-13.38-12.33-24.03-25.07-26.36-52.09-26.36-52.09-2.77-32.11,18.95-55.51,23.02-59.75-13.35,.82-22.07,4.91-27.72,8.75-11.38,7.74-21.95,22.38-21.95,22.38,0,0,0,0,0,.01-1.65,2.65-9.17,14.92-6.01,27.57,.99,3.94,2.41,5.54,2.77,5.92,2.61,2.8,7.82,5.12,11.9,2.77,2.59-1.49,5.25-5.17,3.92-8.59-1.31-3.37-5.53-4.04-5.75-4.07,0,0,.43-1.29,1.67-1.83,2.14-.94,4.96,.73,6.32,2.38,2.38,2.88,1.9,7.53,.1,10.56-2.76,4.62-8.97,6.04-13.75,4.88-6.8-1.64-9.46-8.17-9.73-8.85,0,0-10.85,30.5,4.5,47.58,1.71,1.9,6.7,6.8,14.36,7.79,2.43,.31,9.05,1.17,13.71-3.4,.41-.4,5-5.06,3.69-10.98-1.15-5.22-6.41-9.27-12.84-9.42,.34-.67,.89-1.48,1.8-2.06,3.39-2.14,9.44,.5,12.5,4.08,4.51,5.27,3.9,14.15-.39,19.49-3.18,3.96-7.67,5.1-9.72,5.58-10.78,2.56-24.2-2.57-31.33-12.08-7.92-10.57-8.61-27.29-8.61-27.29-4.29,5.3-25.2,30.09-54.26,28.97-4.11-.16-20.39-1.27-29.09-12.4-1.43-1.83-4.49-5.85-4.96-11.78-.18-2.23-.26-8.06,3.72-13.22,.78-1.01,3.11-3.95,7.28-5.55,.91-.35,7.55-2.88,11.52,.54,.93,.81,1.47,1.73,1.77,2.36-1.3-.43-4.27-1.22-7.84-.35-1.09,.26-5.84,1.56-8.54,6.16-2.47,4.2-1.67,8.5-1.35,10.18,1.7,9.13,10.27,14.2,11.77,15.08,17.49,10.35,42.85-5.05,44.92-6.35,20.42-12.76,26.6-34.24,28.21-40.77-3.13,4.71-12.46,17.33-28.71,21.16-4.74,1.12-14.23,3.35-22.58-1.94-1.41-.9-9.37-5.94-9.51-14.64,0-.61-.02-8.01,5.51-11.85,7.39-5.14,19.56-.38,20.27,3.87,.12,.74-.11,1.44-.4,2-1-.76-2.76-1.9-5.21-2.43-1.15-.25-5.17-1.13-8.37,1.04-3.91,2.64-4.79,8.59-3.19,12.74,2.11,5.46,8.34,7.3,9.63,7.68,13.95,4.11,31.57-9.66,40.92-20.8,3.23-3.85,1.55-2.72,17.92-26.25,3.05-4.39,5.9-8.43,10.46-13.13,5.65-5.82,11.16-9.79,15.13-12.32-4.29,.73-9.99,1.34-16.69,1.1-6.82-.25-18.01-.79-29.12-7.36-7.87-4.66-10.23-9.1-10.9-10.47-.67-1.38-2.4-5.04-2.03-9.96,.22-2.91,1.09-5.19,1.76-6.61l7.99,.32s-6.95,9.06-2.03,18.03c4.93,8.97,35.73,12.73,35.73,12.73-1.11-.3-11.53-3.29-14.24-12.3-.22-.75-2.48-8.64,1.88-12.63,1.81-1.65,4.01-1.94,5.34-2.11,4.45-.58,10.33,1.08,11.25,4.54,.53,1.98-.51,4.74-2.14,5.18-.83,.23-1.97-.11-2.44-.87-.72-1.17,.75-2.42,.35-3.67-.68-2.12-6.59-3.6-9.62-1.18-2.79,2.24-2.72,7.45-1.11,10.84,4.2,8.88,20.75,9.23,30.4,9.43,11.77,.25,13.78-1.64,26.25-2.54,15.31-1.1,29.36-2.12,42.82,4.82,4.1,2.11,22.29,11.48,23.61,29.42,.84,11.38-5.28,23.9-15.73,29.33-1.81,.94-8.82,4.46-17.24,2.33-2.01-.51-11.67-2.94-14.26-11.5-1.49-4.94-.6-11.81,4.19-15.45,4.23-3.22,11.38-3.81,14-.48Z"/><path class="cls-4" d="M349.19,659.61c-5.21-1.87-11.22-4.51-17.53-8.31-12.73-7.68-18.66-15.27-25-13.15-3.74,1.25-5.47,5.16-5.61,5.48-2.07,4.85,.75,9.73,1.24,10.55,.84,1.38,3.38,5.84,12.82,7.43,20.16,3.39,34.08-2,34.08-2Zm-9.7-.7c-11.9,.62-21.05-.02-25.53-1.02-1.59-.36-5.79-1.35-8-4.43-.31-.43-.5-.78-.63-1.02-.32-.58-2.13-4.01-.58-7.29,.1-.22,1.4-2.86,4-3.63,4.48-1.31,8.62,3.95,16.87,9.71,3.07,2.14,7.67,5.01,13.87,7.69Z"/><path class="cls-4" d="M357.81,668.42c-1.19,.1-3.06,.24-5.35,.34-9.46,.42-12.05-.41-17.04,1-3.19,.9-6.06,1.76-7.57,4.47-1.52,2.72-1.38,6.82,.69,8.92,3.94,3.98,14.14,.02,19.85-3.94,5.17-3.59,8.01-8.11,9.43-10.79Zm-6.4,2.84c-.93,1.77-2.81,4.75-6.22,7.12-3.77,2.61-10.5,5.23-13.1,2.6-1.37-1.39-1.46-4.09-.46-5.89,1-1.79,2.9-2.36,5-2.95,3.3-.93,5.01-.38,11.25-.66,1.51-.07,2.75-.16,3.53-.22Z"/><path class="cls-4" d="M312.43,670.89c-1.98,0-5.45-.04-9.75-.5-9.55-1.02-14.73-2.93-25.26-3.64-7.92-.54-10.2,.21-11.65,1.82-2.04,2.26-2.32,6.05-1.06,8.83,1.71,3.77,5.94,4.98,8.21,5.63,13.58,3.89,35.82-9.81,39.5-12.13Zm-9.59,1.89c-11.76,7.11-20.3,7.23-24.2,6.9-2.65-.22-7.79-.66-8.96-3.66-.5-1.28-.22-2.88,.57-3.97,1.1-1.53,3.18-2.05,7.32-2.03,7.31,.03,11.06,1.71,18.24,2.42,3.1,.31,5.61,.34,7.04,.34Z"/><path class="cls-4" d="M279.39,650.13c-16.23-13.68-19.88-24.95-29.62-25.28-1.07-.04-5.34-.18-7.35,2.49-1.74,2.31-.94,5.61-.67,6.73,3.15,12.93,49,29.01,50.41,25.71,.43-1-3.86-2.14-12.77-9.65Zm1.27,4.75c-.49,.81-5.13-2.13-20.99-9.33-7.52-3.41-13.54-5.95-14.78-10.81-.17-.67-.76-2.98,.46-4.6,1.38-1.82,4.3-1.73,5.03-1.7,6.41,.21,9.67,7.23,20.25,17.28,6.56,6.23,10.48,8.43,10.05,9.16Z"/><path class="cls-4" d="M236.6,651.64c-5-4.03-9.4-7.17-12.77-9.45-4.51-3.05-7.6-4.73-13.77-8.07-4.31-2.34-7.23-3.75-11.05-3.49-1.49,.1-4.09,.32-5.97,2.31-2.65,2.82-1.78,7-1.67,7.51,.99,4.42,5.13,6.75,7.44,8,4.78,2.6,8.98,2.8,19.37,2.99,7.59,.14,13.9,.19,18.41,.2Zm-10.54-3.44c-3.04-.01-7.28-.04-12.39-.14-6.99-.13-9.82-.26-13.03-2.01-1.55-.84-4.34-2.41-5-5.38-.08-.34-.66-3.15,1.12-5.05,1.26-1.34,3.01-1.49,4.01-1.55,2.57-.18,4.53,.78,7.43,2.35,4.15,2.25,6.23,3.38,9.26,5.43,2.27,1.53,5.23,3.65,8.59,6.36Z"/><path class="cls-4" d="M343.35,771.34c-.32-4.23-1.2-9.35-2.53-9.44-1.78-.11-1.78,8.95-8.31,19.67-2.4,3.94-3.77,4.95-5.56,9.16-1.32,3.1-4.43,10.42-1.28,14.1,1.26,1.48,3.61,2.46,5.81,2.13,8.28-1.23,12.98-20.75,11.87-35.62Zm-11.13,30.87c-1.4,.21-2.9-.42-3.71-1.36-2.01-2.35-.02-7.02,.82-8.99,.31-.73,.6-1.31,.89-1.81,1.21-2.12,2.3-3.57,2.66-4.03,3.36-4.31,4.88-10.1,6.08-9.84,.7,.15,.8,2.25,.83,3.31,.21,7.62-1.81,21.87-7.57,22.72Z"/><path class="cls-4" d="M326.01,774.35c-.44-.38-2.68,2.31-7.4,5.56-5.38,3.7-9.62,5.13-15.51,7.36-16.64,6.29-25,9.54-26.69,14.38-1.34,3.82-.43,8.95,2.51,11.13,1.47,1.09,3.86,1.75,8.65,.47,7.68-2.04,13.64-6.94,22.2-16.69,8.66-9.86,17.14-21.45,16.24-22.21Zm-23.33,24.98c-5.97,6.18-10.07,9.23-15.22,10.34-3.21,.69-4.77,.18-5.71-.59-1.88-1.54-2.32-4.96-1.31-7.44,1.27-3.15,6.9-5.04,18.12-8.67,3.97-1.29,6.82-2.1,10.5-4.38,3.23-2,4.79-3.71,5.07-3.45,.57,.53-5.41,7.93-11.45,14.19Z"/></g><g><path class="cls-4" d="M612.09,685.47c-1.05,1.28-1.8,3.63-.84,5.09,1.91,2.91,8.57-.69,12.13,2.79,2.17,2.12,1.83,5.53,1.78,5.95-.67,5.81-8.34,9.69-14.43,10.09-4.61,.3-8.28-1.39-10.24-2.51,0,0-8.39-5.81-9.2-14.95-.81-9.15,1.73-32.2,25.54-36.74,23.81-4.54,29.57,12.44,29.57,12.44,0,0,2,4.82-6.68,4.5-.1,0-1.74-.06-2.45,1.06-.72,1.15,.09,2.67,.77,3.4,1.68,1.77,4.77,1,4.99,.94,3.91-1.03,7.48-6.05,6.56-9.4-.11-.38-.07-.64,.06-.77,.75-.74,7.26,5.53,10.32,11.86,4.71,9.74,3.69,24.4-3.83,28.95-3.92,2.37-9.88,2.18-11.44-.2-1.47-2.24,1.26-5.97-.47-7.45-.95-.81-2.62-.42-3.53,.04-2.26,1.15-2.44,4.12-2.48,4.91-.15,2.51,1.01,4.75,2.21,6.06,3.58,3.92,11.37,3.82,16.44,1.02,8.08-4.47,8.85-15.58,9.13-19.55,.98-14.12-7.22-24.72-10.2-28.22,0,0,14.76,8.62,15.63,33.53,.37,10.54-.8,19.65-3.54,28.07-5.07,15.62-13.44,25.21-19.98,32.45-8.93,9.89-18.92,17.28-22.17,15.06-1.36-.93-1.11-3.23-3.09-4.02-2.06-.82-5,.63-6.3,2.61-1.8,2.74-.98,7.25,2.5,10.59,0,0-10.84,8.79-19.94,5.26-4.62-1.79-8.86-6.92-8.79-12.15,0-.63,.07-5.05,3.08-6.56,1.78-.89,4.39-.66,5.52,.73,1.39,1.71,.07,4.57,.77,4.81,.48,.17,1.53-1.04,1.89-2.39,.47-1.77-.32-3.63-1.26-4.67-2.26-2.51-7.23-2.41-10.4-.5-4.9,2.96-5.91,10.5-3.81,15.8,1.35,3.41,3.82,5.45,5.21,6.43-6.11,.33-16.74-.02-27.95-5.59-5.97-2.96-19.33-9.6-22.76-23.42-1.91-7.68-.66-18.11,5.71-23.94,1.01-.92,4.35-3.77,9.47-4.27,1.55-.15,6.53-.4,10.53,2.71,4.8,3.74,6.54,11.07,4.14,18.18,1.46-1.2,3.98-3.64,4.76-7.33,1.47-6.97-4.24-13.73-9.67-16.51-7.72-3.94-17.17-.99-22.58,3.78-9.96,8.78-8.31,25.53-3.29,35.71,5.24,10.66,14.79,15.42,20.93,18.46,12.31,6.1,23.8,6.36,29.69,6.08-11.26,3.41-29.76,10.91-45.48,27.84-5.79,6.24-13.39,16.04-18.39,30.87-1.38,4.08-4.73,15.82-.23,29.51,.85,2.58,6.25,18.19,22.31,26.35,10.26,5.21,19.54,4.68,21.45,4.54,4.57-.33,11.57-.85,17.28-6.07,7.21-6.61,9.14-17.81,6.13-21.77-.19-.25-2.14-2.82-3.29-2.38-.39,.15-.67,.65-.7,1.09-.06,.9,.91,1.62,1.19,1.85,2.07,1.75,2.02,7.58,.25,11.52-.48,1.07-1.98,3.98-6.85,6.71-12.17,6.83-26.95,2.22-29.09,1.52-3.54-1.16-13.3-4.5-20.41-14.39-6.09-8.47-6.87-17.05-7.13-20.45-1.28-16.4,7.32-28.73,11.86-35.25,11.96-17.15,28.37-24.69,36.41-27.7-8.59,6.98-13.31,14.36-15.78,19.01-2.44,4.59-5.35,10.21-5.6,18.04-.13,3.92-.37,11.59,4.95,17.14,2.74,2.86,5.87,4,7.1,4.44,1.58,.56,7.12,2.52,13.11-.09,1.22-.53,6.04-2.72,8.19-8.01,.53-1.31,2.38-5.86,0-9.6-1.27-1.99-3.69-3.69-6.22-3.61-1.28,.04-2.79,.55-2.83,1.15-.05,.82,2.71,.79,4.44,2.81,1.93,2.24,1.37,5.58,1.24,6.36-.54,3.23-2.73,5.86-4.91,7.15-6,3.54-16.45-.38-20.22-7.2-3.31-5.99-.73-12.85,1.58-18.72,8.25-20.98,28.08-31.74,36.27-36.05,7.34-3.86,13.86-6.12,18.36-7.45-2,6.63-.57,12.9,3.33,15.52,2.15,1.45,6.06,2.46,8.74,.82,.32-.19,2.01-1.23,2.23-3,.17-1.39-.61-2.94-1.15-2.91-.35,.02-.42,.67-.82,1.18-1.22,1.57-5.28,1.44-7.19-.13-2.92-2.39-2.05-9.15,.66-13.73,3.07-5.21,7.34-5.6,14.92-10.55,0,0,4.61-3.01,13.65-12.03,24.58-24.54,27.5-51.5,27.5-51.5,3.47-32.04-17.72-55.92-21.7-60.25,13.33,1.11,21.96,5.4,27.52,9.36,11.21,7.98,21.45,22.86,21.45,22.86,0,0,0,0,0,.01,1.6,2.69,8.84,15.12,5.4,27.69-1.07,3.92-2.54,5.48-2.9,5.86-2.67,2.74-7.93,4.95-11.96,2.5-2.56-1.55-5.13-5.28-3.73-8.67,1.38-3.34,5.62-3.91,5.84-3.94,0,0-.4-1.3-1.63-1.87-2.12-.98-4.98,.62-6.37,2.24-2.44,2.82-2.07,7.49-.33,10.56,2.66,4.68,8.83,6.23,13.64,5.19,6.83-1.49,9.64-7.96,9.92-8.63,0,0,10.17,30.73-5.55,47.47-1.75,1.86-6.85,6.65-14.53,7.47-2.44,.26-9.08,.97-13.63-3.71-.4-.41-4.88-5.17-3.45-11.06,1.26-5.19,6.61-9.13,13.05-9.14-.33-.67-.86-1.5-1.76-2.09-3.34-2.22-9.45,.3-12.59,3.8-4.62,5.17-4.21,14.06-.04,19.49,3.1,4.03,7.56,5.26,9.59,5.8,10.72,2.8,24.25-2.04,31.59-11.39,8.15-10.39,9.21-27.09,9.21-27.09,4.17,5.39,24.53,30.63,53.61,30.16,4.12-.07,20.41-.82,29.36-11.76,1.47-1.8,4.62-5.75,5.22-11.67,.23-2.23,.43-8.05-3.43-13.29-.75-1.02-3.02-4.02-7.16-5.71-.9-.37-7.49-3.05-11.53,.29-.95,.78-1.51,1.69-1.82,2.33,1.31-.4,4.3-1.12,7.84-.17,1.08,.29,5.8,1.69,8.4,6.34,2.38,4.25,1.48,8.53,1.13,10.21-1.9,9.09-10.58,13.97-12.1,14.82-17.71,9.96-42.73-6-44.77-7.33-20.13-13.21-25.84-34.81-27.3-41.38,3.03,4.78,12.08,17.6,28.24,21.78,4.72,1.22,14.16,3.66,22.62-1.45,1.43-.86,9.5-5.74,9.83-14.42,.02-.61,.19-8.01-5.25-11.97-7.27-5.3-19.55-.81-20.35,3.43-.14,.74,.08,1.44,.36,2,1.01-.74,2.8-1.84,5.26-2.32,1.15-.22,5.2-1.01,8.35,1.22,3.85,2.73,4.6,8.69,2.91,12.8-2.23,5.41-8.5,7.11-9.8,7.46-14.03,3.8-31.35-10.35-40.45-21.69-3.15-3.92-1.49-2.75-17.34-26.64-2.96-4.46-5.71-8.56-10.17-13.36-5.52-5.94-10.95-10.03-14.86-12.65,4.28,.82,9.96,1.56,16.66,1.46,6.82-.1,18.02-.39,29.28-6.71,7.98-4.48,10.43-8.87,11.13-10.23,2.29-4.46,2.27-8.75,2.25-9.91-.09-3.99-1.3-7.05-2.1-8.71-2.82,.05-5.65,.1-8.47,.14,1.2,1.33,4.62,5.45,4.52,11.2-.06,3.52-1.41,6.08-2.08,7.32-7.1,13.09-27.63,13.89-29,13.93-3.01,.08-5.44-.18-6.85-.38,1.11-.27,11.6-3.03,14.5-11.98,.24-.74,2.67-8.59-1.61-12.67-1.77-1.69-3.96-2.03-5.29-2.23-4.43-.68-10.35,.85-11.35,4.29-.58,1.97,.4,4.75,2.02,5.23,.83,.25,1.97-.06,2.46-.81,.74-1.16-.69-2.44-.27-3.67,.73-2.1,6.67-3.45,9.64-.96,2.74,2.3,2.55,7.51,.87,10.87-4.39,8.78-20.94,8.77-30.6,8.76-11.77-.01-13.74-1.94-26.18-3.11-15.29-1.44-29.31-2.76-42.92,3.88-4.15,2.02-22.54,10.99-24.26,28.9-1.09,11.36,4.75,24.01,15.08,29.67,1.78,.98,8.72,4.65,17.19,2.71,2.02-.46,11.73-2.69,14.51-11.18,1.6-4.9,.86-11.8-3.84-15.54-4.16-3.31-11.3-4.06-13.99-.79Z"/><path class="cls-4" d="M757.52,665.56c9.46-1.38,12.11-5.78,12.98-7.15,.51-.81,3.44-5.62,1.48-10.52-.13-.33-1.78-4.27-5.48-5.61-6.29-2.26-12.39,5.2-25.29,12.59-6.4,3.67-12.46,6.17-17.71,7.92,0,0,13.8,5.7,34.03,2.75Zm-10.29-10.62c8.38-5.57,12.63-10.74,17.08-9.33,2.59,.82,3.82,3.49,3.92,3.72,1.48,3.32-.41,6.71-.74,7.28-.13,.23-.33,.58-.65,1-2.28,3.04-6.5,3.93-8.1,4.26-4.5,.91-13.67,1.34-25.55,.46,6.26-2.54,10.92-5.32,14.03-7.39Z"/><path class="cls-4" d="M723.86,682.42c5.62,4.08,15.73,8.27,19.76,4.38,2.12-2.05,2.35-6.15,.89-8.9-1.45-2.74-4.31-3.67-7.47-4.64-4.96-1.52-7.57-.75-17.02-1.38-2.29-.15-4.16-.33-5.34-.45,1.35,2.71,4.09,7.29,9.19,10.99Zm.68-7.72c6.24,.41,7.96-.1,11.23,.91,2.09,.64,3.98,1.25,4.93,3.06,.96,1.82,.81,4.52-.59,5.88-2.66,2.57-9.33-.19-13.04-2.89-3.36-2.44-5.17-5.47-6.06-7.26,.78,.08,2.01,.2,3.53,.3Z"/><path class="cls-4" d="M799.22,687.89c2.29-.6,6.54-1.72,8.33-5.45,1.32-2.75,1.13-6.55-.86-8.85-1.42-1.64-3.68-2.44-11.61-2.07-10.54,.49-15.76,2.28-25.33,3.09-4.31,.37-7.78,.34-9.76,.29,3.64,2.4,25.57,16.59,39.23,13Zm-22.64-11.08c7.19-.55,10.98-2.15,18.29-2.02,4.14,.08,6.2,.64,7.27,2.2,.76,1.11,1.01,2.72,.48,3.98-1.24,2.97-6.39,3.29-9.04,3.46-3.9,.24-12.43-.06-24.04-7.43,1.43,.04,3.93,.05,7.04-.18Z"/><path class="cls-4" d="M780.5,664.23c1.34,3.34,47.53-11.73,50.97-24.59,.3-1.11,1.17-4.39-.52-6.74-1.95-2.71-6.23-2.67-7.3-2.65-9.75,.11-13.65,11.3-30.17,24.62-9.07,7.31-13.38,8.36-12.97,9.36Zm21.84-13.57c10.8-9.81,14.2-16.75,20.62-16.83,.73,0,3.65-.04,4.99,1.81,1.19,1.65,.54,3.94,.36,4.61-1.35,4.82-7.42,7.23-15.02,10.48-16.01,6.84-20.72,9.68-21.19,8.86-.42-.74,3.55-2.85,10.25-8.94Z"/><path class="cls-4" d="M854.64,657.52c10.39,.04,14.6-.06,19.43-2.56,2.34-1.2,6.52-3.44,7.61-7.84,.12-.5,1.09-4.66-1.5-7.54-1.83-2.03-4.43-2.31-5.91-2.44-3.81-.34-6.76,1-11.13,3.24-6.25,3.21-9.37,4.81-13.95,7.77-3.42,2.21-7.89,5.25-12.97,9.16,4.51,.08,10.83,.17,18.41,.2Zm.92-9.58c3.08-1.99,5.18-3.07,9.38-5.22,2.93-1.51,4.92-2.41,7.48-2.18,1,.09,2.75,.27,3.98,1.64,1.74,1.94,1.09,4.74,1.01,5.07-.73,2.96-3.55,4.46-5.12,5.27-3.25,1.68-6.08,1.75-13.07,1.72-5.1-.02-9.35-.08-12.39-.14,3.42-2.63,6.43-4.68,8.73-6.16Z"/><path class="cls-4" d="M737.95,810.51c2.19,.37,4.56-.55,5.86-2.01,3.23-3.61,.28-10.99-.97-14.12-1.7-4.25-3.04-5.28-5.35-9.28-6.29-10.86-6.09-19.92-7.87-19.84-1.33,.06-2.33,5.16-2.74,9.38-1.44,14.84,2.83,34.46,11.08,35.87Zm-7.71-27.64c.05-1.06,.2-3.15,.9-3.29,1.21-.24,2.6,5.59,5.86,9.97,.35,.47,1.4,1.94,2.57,4.09,.28,.51,.55,1.1,.85,1.83,.8,2,2.68,6.7,.62,9.01-.83,.93-2.34,1.52-3.73,1.28-5.74-.98-7.44-15.27-7.07-22.88Z"/><path class="cls-4" d="M759.88,800.59c8.34,9.94,14.19,14.96,21.83,17.17,4.76,1.38,7.16,.78,8.66-.28,2.99-2.11,4.01-7.22,2.76-11.07-1.59-4.88-9.87-8.31-26.37-14.97-5.84-2.36-10.05-3.87-15.34-7.7-4.65-3.35-6.82-6.09-7.28-5.73-.91,.74,7.31,12.51,15.75,22.56Zm-4.11-11.51c.29-.26,1.81,1.49,5,3.56,3.63,2.36,6.46,3.23,10.4,4.61,11.13,3.88,16.72,5.89,17.92,9.07,.95,2.51,.44,5.92-1.47,7.41-.96,.75-2.53,1.22-5.72,.46-5.12-1.22-9.15-4.36-14.99-10.68-5.9-6.38-11.71-13.92-11.13-14.43Z"/></g></g></g></svg>